# xmcd
#
# Track frame offsets:
#	150
#	25454
#	46070
#	67118
#	83624
#	104449
#	121958
#	141571
#	175311
#	188029
#	209342
#	226506
#	238265
#	283012
#
# Disc length: 4045
#
# Revision: 3
# Processed by: cddbd v1.5.1PL0 Copyright (c) Steve Scherf et al.
# Submitted via: CdAid (MTCDDB.DLL V2003.01.23)
# Normalized: r2:DSETVAR1,TDELIM( - )
#
DISCID=c80fcb0e
DTITLE=Various Artist - Jazzadelic 03.6 - High-Fidelic Jazz Vibes
DYEAR=2003
DGENRE=Jazz
TTITLE0=George Duke - Chillin'
TTITLE1=ELvis Costello - Someone Took The Words Away
TTITLE2=Silje Nergaard - I Don't Wanna See You Cry
TTITLE3=Mariza - Cavaleiro Monge
TTITLE4=Cassandra Wilson - Fragile
TTITLE5=George Benson - Whole Man
TTITLE6=Benny Sings - Twist  You Around
TTITLE7=Terence Blanchard - Footprints
TTITLE8=The Rosenberg Trio - Rose Room
TTITLE9=Cibelle - Só Sei Viver No Samba
TTITLE10=Al Green - I Can't Stop
TTITLE11=Sandra Luna - Tango Varón
TTITLE12=Pat Martino - Quatessence
TTITLE13=Groove Troopers - Rolling Rock
EXTD=ID3G:   8  YEAR: 2003
EXTT0=
EXTT1=
EXTT2=
EXTT3=
EXTT4=
EXTT5=
EXTT6=
EXTT7=
EXTT8=
EXTT9=
EXTT10=
EXTT11=
EXTT12=
EXTT13=
PLAYORDER=
